<svg id="SvgjsSvg1006" width="1481.8399353027344" height="1315.1599731445312" xmlns="http://www.w3.org/2000/svg" version="1.1" xmlns:xlink="http://www.w3.org/1999/xlink" xmlns:svgjs="http://svgjs.com/svgjs"><defs id="SvgjsDefs1007"><marker id="SvgjsMarker1294" markerWidth="20" markerHeight="12" refX="20" refY="6" viewBox="0 0 20 12" orient="auto" markerUnits="userSpaceOnUse" stroke-dasharray="0,0"><path id="SvgjsPath1295" d="M2,6 L10,2 L18,6 L10,10L2,6" fill="#ffffff" stroke="#323232" stroke-width="2"></path></marker><marker id="SvgjsMarker1310" markerWidth="20" markerHeight="12" refX="20" refY="6" viewBox="0 0 20 12" orient="auto" markerUnits="userSpaceOnUse" stroke-dasharray="0,0"><path id="SvgjsPath1311" d="M2,6 L10,2 L18,6 L10,10L2,6" fill="#ffffff" stroke="#323232" stroke-width="2"></path></marker></defs><g id="SvgjsG1008" transform="translate(477.8399963378906,25)"><path id="SvgjsPath1009" d="M 0 4Q 0 0 4 0L 226 0Q 230 0 230 4L 230 86Q 230 90 226 90L 4 90Q 0 90 0 86Z" stroke="rgba(50,50,50,1)" stroke-width="2" fill-opacity="1" fill="#ffffff"></path><path id="SvgjsPath1010" d="M 0 30L 230 30M 0 60L 230 60" stroke="rgba(50,50,50,1)" stroke-width="2" fill="none"></path><path id="SvgjsPath1011" d="M 0 0L 230 0L 230 90L 0 90Z" stroke="none" fill="none"></path><g id="SvgjsG1012"><text id="SvgjsText1013" font-family="微软雅黑" text-anchor="middle" font-size="13px" width="210px" fill="#323232" font-weight="700" align="middle" anchor="middle" family="微软雅黑" size="13px" weight="700" font-style="" opacity="1" y="5.05" transform="rotate(0)"><tspan id="SvgjsTspan1014" dy="16" x="115"><tspan id="SvgjsTspan1015" style="text-decoration:;">Room</tspan></tspan></text></g><g id="SvgjsG1016"><text id="SvgjsText1017" font-family="微软雅黑" text-anchor="start" font-size="13px" width="210px" fill="#323232" font-weight="400" align="middle" anchor="start" family="微软雅黑" size="13px" weight="400" font-style="" opacity="1" y="35.05" transform="rotate(0)"><tspan id="SvgjsTspan1018" dy="16" x="10"><tspan id="SvgjsTspan1019" style="text-decoration:;">timeSlot</tspan></tspan></text></g><g id="SvgjsG1020"><text id="SvgjsText1021" font-family="微软雅黑" text-anchor="start" font-size="13px" width="210px" fill="#323232" font-weight="400" align="middle" anchor="start" family="微软雅黑" size="13px" weight="400" font-style="" opacity="1" y="65.05" transform="rotate(0)"></text></g></g><g id="SvgjsG1022" transform="translate(57.839996337890625,215.75)"><path id="SvgjsPath1023" d="M 0 4Q 0 0 4 0L 226 0Q 230 0 230 4L 230 86Q 230 90 226 90L 4 90Q 0 90 0 86Z" stroke="rgba(50,50,50,1)" stroke-width="2" fill-opacity="1" fill="#ffffff"></path><path id="SvgjsPath1024" d="M 0 30L 230 30M 0 60L 230 60" stroke="rgba(50,50,50,1)" stroke-width="2" fill="none"></path><path id="SvgjsPath1025" d="M 0 0L 230 0L 230 90L 0 90Z" stroke="none" fill="none"></path><g id="SvgjsG1026"><text id="SvgjsText1027" font-family="微软雅黑" text-anchor="middle" font-size="13px" width="210px" fill="#323232" font-weight="700" align="middle" anchor="middle" family="微软雅黑" size="13px" weight="700" font-style="" opacity="1" y="5.05" transform="rotate(0)"><tspan id="SvgjsTspan1028" dy="16" x="115"><tspan id="SvgjsTspan1029" style="text-decoration:;">Classroom</tspan></tspan></text></g><g id="SvgjsG1030"><text id="SvgjsText1031" font-family="微软雅黑" text-anchor="start" font-size="13px" width="210px" fill="#323232" font-weight="400" align="middle" anchor="start" family="微软雅黑" size="13px" weight="400" font-style="" opacity="1" y="35.05" transform="rotate(0)"><tspan id="SvgjsTspan1032" dy="16" x="10"><tspan id="SvgjsTspan1033" style="text-decoration:;">availableSeats: int</tspan></tspan></text></g><g id="SvgjsG1034"><text id="SvgjsText1035" font-family="微软雅黑" text-anchor="start" font-size="13px" width="210px" fill="#323232" font-weight="400" align="middle" anchor="start" family="微软雅黑" size="13px" weight="400" font-style="" opacity="1" y="65.05" transform="rotate(0)"></text></g></g><g id="SvgjsG1036" transform="translate(337.8399963378906,215.75)"><path id="SvgjsPath1037" d="M 0 4Q 0 0 4 0L 226 0Q 230 0 230 4L 230 88Q 230 92 226 92L 4 92Q 0 92 0 88Z" stroke="rgba(50,50,50,1)" stroke-width="2" fill-opacity="1" fill="#ffffff"></path><path id="SvgjsPath1038" d="M 0 30L 230 30M 0 62L 230 62" stroke="rgba(50,50,50,1)" stroke-width="2" fill="none"></path><path id="SvgjsPath1039" d="M 0 0L 230 0L 230 92L 0 92Z" stroke="none" fill="none"></path><g id="SvgjsG1040"><text id="SvgjsText1041" font-family="微软雅黑" text-anchor="middle" font-size="13px" width="210px" fill="#323232" font-weight="700" align="middle" anchor="middle" family="微软雅黑" size="13px" weight="700" font-style="" opacity="1" y="5.05" transform="rotate(0)"><tspan id="SvgjsTspan1042" dy="16" x="115"><tspan id="SvgjsTspan1043" style="text-decoration:;">Lecture Hall</tspan></tspan></text></g><g id="SvgjsG1044"><text id="SvgjsText1045" font-family="微软雅黑" text-anchor="start" font-size="13px" width="210px" fill="#323232" font-weight="400" align="middle" anchor="start" family="微软雅黑" size="13px" weight="400" font-style="" opacity="1" y="28.05" transform="rotate(0)"><tspan id="SvgjsTspan1046" dy="16" x="10"><tspan id="SvgjsTspan1047" style="text-decoration:;">availableSeats: int</tspan></tspan><tspan id="SvgjsTspan1048" dy="16" x="10"><tspan id="SvgjsTspan1049" style="text-decoration:;">equipments: list</tspan></tspan></text></g><g id="SvgjsG1050"><text id="SvgjsText1051" font-family="微软雅黑" text-anchor="start" font-size="13px" width="210px" fill="#323232" font-weight="400" align="middle" anchor="start" family="微软雅黑" size="13px" weight="400" font-style="" opacity="1" y="67.05" transform="rotate(0)"><tspan id="SvgjsTspan1052" dy="16" x="10"><tspan id="SvgjsTspan1053" style="text-decoration:;">changeEquipments()</tspan></tspan></text></g></g><g id="SvgjsG1054" transform="translate(618.8399963378906,215.75)"><path id="SvgjsPath1055" d="M 0 4Q 0 0 4 0L 226 0Q 230 0 230 4L 230 90Q 230 94 226 94L 4 94Q 0 94 0 90Z" stroke="rgba(50,50,50,1)" stroke-width="2" fill-opacity="1" fill="#ffffff"></path><path id="SvgjsPath1056" d="M 0 30L 230 30M 0 62L 230 62" stroke="rgba(50,50,50,1)" stroke-width="2" fill="none"></path><path id="SvgjsPath1057" d="M 0 0L 230 0L 230 94L 0 94Z" stroke="none" fill="none"></path><g id="SvgjsG1058"><text id="SvgjsText1059" font-family="微软雅黑" text-anchor="middle" font-size="13px" width="210px" fill="#323232" font-weight="700" align="middle" anchor="middle" family="微软雅黑" size="13px" weight="700" font-style="" opacity="1" y="5.05" transform="rotate(0)"><tspan id="SvgjsTspan1060" dy="16" x="115"><tspan id="SvgjsTspan1061" style="text-decoration:;">Activity Room</tspan></tspan></text></g><g id="SvgjsG1062"><text id="SvgjsText1063" font-family="微软雅黑" text-anchor="start" font-size="13px" width="210px" fill="#323232" font-weight="400" align="middle" anchor="start" family="微软雅黑" size="13px" weight="400" font-style="" opacity="1" y="28.05" transform="rotate(0)"><tspan id="SvgjsTspan1064" dy="16" x="10"><tspan id="SvgjsTspan1065" style="text-decoration:;">equipments: list</tspan></tspan><tspan id="SvgjsTspan1066" dy="16" x="10"><tspan id="SvgjsTspan1067" style="text-decoration:;">services: list</tspan></tspan></text></g><g id="SvgjsG1068"><text id="SvgjsText1069" font-family="微软雅黑" text-anchor="start" font-size="13px" width="210px" fill="#323232" font-weight="400" align="middle" anchor="start" family="微软雅黑" size="13px" weight="400" font-style="" opacity="1" y="60.05" transform="rotate(0)"><tspan id="SvgjsTspan1070" dy="16" x="10"><tspan id="SvgjsTspan1071" style="text-decoration:;">changeEquipments()</tspan></tspan><tspan id="SvgjsTspan1072" dy="16" x="10"><tspan id="SvgjsTspan1073" style="text-decoration:;">changeServices()</tspan></tspan></text></g></g><g id="SvgjsG1074" transform="translate(886.8399963378906,215.75)"><path id="SvgjsPath1075" d="M 0 4Q 0 0 4 0L 226 0Q 230 0 230 4L 230 86Q 230 90 226 90L 4 90Q 0 90 0 86Z" stroke="rgba(50,50,50,1)" stroke-width="2" fill-opacity="1" fill="#ffffff"></path><path id="SvgjsPath1076" d="M 0 30L 230 30M 0 60L 230 60" stroke="rgba(50,50,50,1)" stroke-width="2" fill="none"></path><path id="SvgjsPath1077" d="M 0 0L 230 0L 230 90L 0 90Z" stroke="none" fill="none"></path><g id="SvgjsG1078"><text id="SvgjsText1079" font-family="微软雅黑" text-anchor="middle" font-size="13px" width="210px" fill="#323232" font-weight="700" align="middle" anchor="middle" family="微软雅黑" size="13px" weight="700" font-style="" opacity="1" y="5.05" transform="rotate(0)"><tspan id="SvgjsTspan1080" dy="16" x="115"><tspan id="SvgjsTspan1081" style="text-decoration:;">Computer Lab</tspan></tspan></text></g><g id="SvgjsG1082"><text id="SvgjsText1083" font-family="微软雅黑" text-anchor="start" font-size="13px" width="210px" fill="#323232" font-weight="400" align="middle" anchor="start" family="微软雅黑" size="13px" weight="400" font-style="" opacity="1" y="35.05" transform="rotate(0)"><tspan id="SvgjsTspan1084" dy="16" x="10"><tspan id="SvgjsTspan1085" style="text-decoration:;">availableSeats: int</tspan></tspan></text></g><g id="SvgjsG1086"><text id="SvgjsText1087" font-family="微软雅黑" text-anchor="start" font-size="13px" width="210px" fill="#323232" font-weight="400" align="middle" anchor="start" family="微软雅黑" size="13px" weight="400" font-style="" opacity="1" y="65.05" transform="rotate(0)"><tspan id="SvgjsTspan1088" dy="16" x="10"><tspan id="SvgjsTspan1089" style="text-decoration:;">changeSoftware()</tspan></tspan></text></g></g><g id="SvgjsG1090" transform="translate(1226.8399963378906,52.015625)"><path id="SvgjsPath1091" d="M 0 4Q 0 0 4 0L 226 0Q 230 0 230 4L 230 88Q 230 92 226 92L 4 92Q 0 92 0 88Z" stroke="rgba(50,50,50,1)" stroke-width="2" fill-opacity="1" fill="#ffffff"></path><path id="SvgjsPath1092" d="M 0 30L 230 30M 0 62L 230 62" stroke="rgba(50,50,50,1)" stroke-width="2" fill="none"></path><path id="SvgjsPath1093" d="M 0 0L 230 0L 230 92L 0 92Z" stroke="none" fill="none"></path><g id="SvgjsG1094"><text id="SvgjsText1095" font-family="微软雅黑" text-anchor="middle" font-size="13px" width="210px" fill="#323232" font-weight="700" align="middle" anchor="middle" family="微软雅黑" size="13px" weight="700" font-style="" opacity="1" y="5.05" transform="rotate(0)"><tspan id="SvgjsTspan1096" dy="16" x="115"><tspan id="SvgjsTspan1097" style="text-decoration:;">Software Application</tspan></tspan></text></g><g id="SvgjsG1098"><text id="SvgjsText1099" font-family="微软雅黑" text-anchor="start" font-size="13px" width="210px" fill="#323232" font-weight="400" align="middle" anchor="start" family="微软雅黑" size="13px" weight="400" font-style="" opacity="1" y="28.05" transform="rotate(0)"><tspan id="SvgjsTspan1100" dy="16" x="10"><tspan id="SvgjsTspan1101" style="text-decoration:;">softwareName: String</tspan></tspan><tspan id="SvgjsTspan1102" dy="16" x="10"><tspan id="SvgjsTspan1103" style="text-decoration:;">versionNum: String</tspan></tspan></text></g><g id="SvgjsG1104"><text id="SvgjsText1105" font-family="微软雅黑" text-anchor="start" font-size="13px" width="210px" fill="#323232" font-weight="400" align="middle" anchor="start" family="微软雅黑" size="13px" weight="400" font-style="" opacity="1" y="67.05" transform="rotate(0)"></text></g></g><g id="SvgjsG1106" transform="translate(1046.5274963378906,226.8388671875)"><path id="SvgjsPath1107" d="M 0 0L 160 0L 160 40L 0 40Z" stroke="none" fill="none"></path><g id="SvgjsG1108"><text id="SvgjsText1109" font-family="微软雅黑" text-anchor="middle" font-size="13px" width="160px" fill="#323232" font-weight="400" align="middle" anchor="middle" family="微软雅黑" size="13px" weight="400" font-style="" opacity="1" y="10.05" transform="rotate(0)"><tspan id="SvgjsTspan1110" dy="16" x="80"><tspan id="SvgjsTspan1111" style="text-decoration:;">1</tspan></tspan></text></g></g><g id="SvgjsG1112"><path id="SvgjsPath1113" d="M452.8399963378906 215.75L452.8399963378906 197.25L452.8399963378906 197.25L452.8399963378906 178.75" stroke="#323232" stroke-width="2" fill="none"></path></g><g id="SvgjsG1114"><path id="SvgjsPath1115" d="M733.8399963378906 215.75L733.8399963378906 177.90000915527344L594.0899963378906 177.90000915527344" stroke="#323232" stroke-width="2" fill="none"></path></g><g id="SvgjsG1116"><path id="SvgjsPath1117" d="M1001.8399963378906 215.75L1001.8399963378906 177.75L734.8399963378906 177.75" stroke="#323232" stroke-width="2" fill="none"></path></g><g id="SvgjsG1118" transform="translate(275.9900016784668,490.3499984741211)"><path id="SvgjsPath1119" d="M 0 4Q 0 0 4 0L 226 0Q 230 0 230 4L 230 120Q 230 124 226 124L 4 124Q 0 124 0 120Z" stroke="rgba(50,50,50,1)" stroke-width="2" fill-opacity="1" fill="#ffffff"></path><path id="SvgjsPath1120" d="M 0 30L 230 30M 0 94L 230 94" stroke="rgba(50,50,50,1)" stroke-width="2" fill="none"></path><path id="SvgjsPath1121" d="M 0 0L 230 0L 230 124L 0 124Z" stroke="none" fill="none"></path><g id="SvgjsG1122"><text id="SvgjsText1123" font-family="微软雅黑" text-anchor="middle" font-size="13px" width="210px" fill="#323232" font-weight="700" align="middle" anchor="middle" family="微软雅黑" size="13px" weight="700" font-style="" opacity="1" y="5.05" transform="rotate(0)"><tspan id="SvgjsTspan1124" dy="16" x="115"><tspan id="SvgjsTspan1125" style="text-decoration:;">Teacher</tspan></tspan></text></g><g id="SvgjsG1126"><text id="SvgjsText1127" font-family="微软雅黑" text-anchor="start" font-size="13px" width="210px" fill="#323232" font-weight="400" align="middle" anchor="start" family="微软雅黑" size="13px" weight="400" font-style="" opacity="1" y="28.05" transform="rotate(0)"><tspan id="SvgjsTspan1128" dy="16" x="10"><tspan id="SvgjsTspan1129" style="text-decoration:;">name: String</tspan></tspan><tspan id="SvgjsTspan1130" dy="16" x="10"><tspan id="SvgjsTspan1131" style="text-decoration:;">staffID: String</tspan></tspan><tspan id="SvgjsTspan1132" dy="16" x="10"><tspan id="SvgjsTspan1133" style="text-decoration:;">officeNum: String</tspan></tspan><tspan id="SvgjsTspan1134" dy="16" x="10"><tspan id="SvgjsTspan1135" style="text-decoration:;">officePhoneNum: String</tspan></tspan></text></g><g id="SvgjsG1136"><text id="SvgjsText1137" font-family="微软雅黑" text-anchor="start" font-size="13px" width="210px" fill="#323232" font-weight="400" align="middle" anchor="start" family="微软雅黑" size="13px" weight="400" font-style="" opacity="1" y="99.05" transform="rotate(0)"></text></g></g><g id="SvgjsG1138" transform="translate(618.8581604212523,538.6625003814697)"><path id="SvgjsPath1139" d="M 0 4Q 0 0 4 0L 226 0Q 230 0 230 4L 230 104Q 230 108 226 108L 4 108Q 0 108 0 104Z" stroke="rgba(50,50,50,1)" stroke-width="2" fill-opacity="1" fill="#ffffff"></path><path id="SvgjsPath1140" d="M 0 30L 230 30M 0 78L 230 78" stroke="rgba(50,50,50,1)" stroke-width="2" fill="none"></path><path id="SvgjsPath1141" d="M 0 0L 230 0L 230 108L 0 108Z" stroke="none" fill="none"></path><g id="SvgjsG1142"><text id="SvgjsText1143" font-family="微软雅黑" text-anchor="middle" font-size="13px" width="210px" fill="#323232" font-weight="700" align="middle" anchor="middle" family="微软雅黑" size="13px" weight="700" font-style="" opacity="1" y="5.05" transform="rotate(0)"><tspan id="SvgjsTspan1144" dy="16" x="115"><tspan id="SvgjsTspan1145" style="text-decoration:;">Student</tspan></tspan></text></g><g id="SvgjsG1146"><text id="SvgjsText1147" font-family="微软雅黑" text-anchor="start" font-size="13px" width="210px" fill="#323232" font-weight="400" align="middle" anchor="start" family="微软雅黑" size="13px" weight="400" font-style="" opacity="1" y="28.05" transform="rotate(0)"><tspan id="SvgjsTspan1148" dy="16" x="10"><tspan id="SvgjsTspan1149" style="text-decoration:;">name: String</tspan></tspan><tspan id="SvgjsTspan1150" dy="16" x="10"><tspan id="SvgjsTspan1151" style="text-decoration:;">studentID: String</tspan></tspan><tspan id="SvgjsTspan1152" dy="16" x="10"><tspan id="SvgjsTspan1153" style="text-decoration:;">mobilePhoneNum: String</tspan></tspan></text></g><g id="SvgjsG1154"><text id="SvgjsText1155" font-family="微软雅黑" text-anchor="start" font-size="13px" width="210px" fill="#323232" font-weight="400" align="middle" anchor="start" family="微软雅黑" size="13px" weight="400" font-style="" opacity="1" y="83.05" transform="rotate(0)"></text></g></g><g id="SvgjsG1156"><path id="SvgjsPath1157" d="M733.8581604212523 538.6625003814697L733.8581604212523 424.20625019073486L733.8399963378906 424.20625019073486L733.8399963378906 309.75" stroke="#323232" stroke-width="2" fill="none"></path><rect id="SvgjsRect1158" width="32" height="16" x="717.8490783795714" y="416.20625019073486" fill="#ffffff"></rect><text id="SvgjsText1159" font-family="微软雅黑" text-anchor="middle" font-size="13px" width="32px" fill="#323232" font-weight="400" align="top" anchor="middle" family="微软雅黑" size="13px" weight="400" font-style="" opacity="1" y="414.2562501907349" transform="rotate(0)"><tspan id="SvgjsTspan1160" dy="16" x="733.8490783795714"><tspan id="SvgjsTspan1161" style="text-decoration:;">Book</tspan></tspan></text></g><g id="SvgjsG1162" transform="translate(662.3453034121812,295.75)"><path id="SvgjsPath1163" d="M 0 0L 160 0L 160 40L 0 40Z" stroke="none" fill="none"></path><g id="SvgjsG1164"><text id="SvgjsText1165" font-family="微软雅黑" text-anchor="middle" font-size="13px" width="160px" fill="#323232" font-weight="400" align="middle" anchor="middle" family="微软雅黑" size="13px" weight="400" font-style="" opacity="1" y="10.05" transform="rotate(0)"><tspan id="SvgjsTspan1166" dy="16" x="80"><tspan id="SvgjsTspan1167" style="text-decoration:;">1</tspan></tspan></text></g></g><g id="SvgjsG1168" transform="translate(664.3399963378906,510.75)"><path id="SvgjsPath1169" d="M 0 0L 160 0L 160 40L 0 40Z" stroke="none" fill="none"></path><g id="SvgjsG1170"><text id="SvgjsText1171" font-family="微软雅黑" text-anchor="middle" font-size="13px" width="160px" fill="#323232" font-weight="400" align="middle" anchor="middle" family="微软雅黑" size="13px" weight="400" font-style="" opacity="1" y="10.05" transform="rotate(0)"><tspan id="SvgjsTspan1172" dy="16" x="80"><tspan id="SvgjsTspan1173" style="text-decoration:;">1</tspan></tspan></text></g></g><g id="SvgjsG1174"><path id="SvgjsPath1175" d="M477.8399963378906 70L30.990001678466797 70L30.990001678466797 583.3499984741211L275.9900016784668 583.3499984741211" stroke="#323232" stroke-width="2" fill="none"></path><rect id="SvgjsRect1176" width="32" height="16" x="14.990001678466797" y="217.75000190734863" fill="#ffffff"></rect><text id="SvgjsText1177" font-family="微软雅黑" text-anchor="middle" font-size="13px" width="32px" fill="#323232" font-weight="400" align="top" anchor="middle" family="微软雅黑" size="13px" weight="400" font-style="" opacity="1" y="215.80000190734864" transform="rotate(0)"><tspan id="SvgjsTspan1178" dy="16" x="30.990001678466797"><tspan id="SvgjsTspan1179" style="text-decoration:;">Book</tspan></tspan></text></g><g id="SvgjsG1180" transform="translate(432.6284228153527,972.4125003814697)"><path id="SvgjsPath1181" d="M 0 4Q 0 0 4 0L 226 0Q 230 0 230 4L 230 122Q 230 126 226 126L 4 126Q 0 126 0 122Z" stroke="rgba(50,50,50,1)" stroke-width="2" fill-opacity="1" fill="#ffffff"></path><path id="SvgjsPath1182" d="M 0 30L 230 30M 0 62L 230 62" stroke="rgba(50,50,50,1)" stroke-width="2" fill="none"></path><path id="SvgjsPath1183" d="M 0 0L 230 0L 230 126L 0 126Z" stroke="none" fill="none"></path><g id="SvgjsG1184"><text id="SvgjsText1185" font-family="微软雅黑" text-anchor="middle" font-size="13px" width="210px" fill="#323232" font-weight="700" align="middle" anchor="middle" family="微软雅黑" size="13px" weight="700" font-style="" opacity="1" y="5.05" transform="rotate(0)"><tspan id="SvgjsTspan1186" dy="16" x="115"><tspan id="SvgjsTspan1187" style="text-decoration:;">Online Booking System</tspan></tspan></text></g><g id="SvgjsG1188"><text id="SvgjsText1189" font-family="微软雅黑" text-anchor="start" font-size="13px" width="210px" fill="#323232" font-weight="400" align="middle" anchor="start" family="微软雅黑" size="13px" weight="400" font-style="" opacity="1" y="28.05" transform="rotate(0)"><tspan id="SvgjsTspan1190" dy="16" x="10"><tspan id="SvgjsTspan1191" style="text-decoration:;">date: Datetime</tspan></tspan><tspan id="SvgjsTspan1192" dy="16" x="10"><tspan id="SvgjsTspan1193" style="text-decoration:;">timeSlot: Datetime</tspan></tspan></text></g><g id="SvgjsG1194"><text id="SvgjsText1195" font-family="微软雅黑" text-anchor="start" font-size="13px" width="210px" fill="#323232" font-weight="400" align="middle" anchor="start" family="微软雅黑" size="13px" weight="400" font-style="" opacity="1" y="60.05" transform="rotate(0)"><tspan id="SvgjsTspan1196" dy="16" x="10"><tspan id="SvgjsTspan1197" style="text-decoration:;">checkRoomAvailable()</tspan></tspan><tspan id="SvgjsTspan1198" dy="16" x="10"><tspan id="SvgjsTspan1199" style="text-decoration:;">sendSuccessfulBookingInfo()</tspan></tspan><tspan id="SvgjsTspan1200" dy="16" x="10"><tspan id="SvgjsTspan1201" style="text-decoration:;">sendFailedMessage()</tspan></tspan><tspan id="SvgjsTspan1202" dy="16" x="10"><tspan id="SvgjsTspan1203" style="text-decoration:;">updateTimeSlotIfBooked()</tspan></tspan></text></g></g><g id="SvgjsG1204" transform="translate(571.6681180000305,126.65000915527344)"><path id="SvgjsPath1205" d="M 21.450002670288086 0L 42.90000534057617 20L 0 20Z" stroke="rgba(50,50,50,1)" stroke-width="2" fill-opacity="1" fill="#ffffff"></path><g id="SvgjsG1206"><text id="SvgjsText1207" font-family="微软雅黑" text-anchor="middle" font-size="13px" width="23px" fill="#323232" font-weight="400" align="middle" anchor="middle" family="微软雅黑" size="13px" weight="400" font-style="" opacity="1" y="2.55" transform="rotate(0)"></text></g></g><g id="SvgjsG1208"><path id="SvgjsPath1209" d="M593.1181206703186 126.65000915527344L593.1181206703186 120.82500457763672L592.8399963378906 120.82500457763672L592.8399963378906 115" stroke="#323232" stroke-width="2" fill="none"></path></g><g id="SvgjsG1210"><path id="SvgjsPath1211" d="M172.83999633789062 215.75L172.83999633789062 177.45000457763672L593.1181206703186 177.45000457763672L593.1181206703186 146.65000915527344" stroke="#323232" stroke-width="2" fill="none"></path></g><g id="SvgjsG1212"><path id="SvgjsPath1213" d="M390.9900016784668 614.3499984741211L390.9900016784668 704.1625003814697L733.8581604212523 704.1625003814697L733.8581604212523 646.6625003814697" stroke="#323232" stroke-width="2" fill="none"></path></g><g id="SvgjsG1214" transform="translate(763.8784228153527,378.6625003814697)"><path id="SvgjsPath1215" d="M 0 4Q 0 0 4 0L 226 0Q 230 0 230 4L 230 88Q 230 92 226 92L 4 92Q 0 92 0 88Z" stroke="rgba(50,50,50,1)" stroke-width="2" fill-opacity="1" fill="#ffffff"></path><path id="SvgjsPath1216" d="M 0 30L 230 30M 0 62L 230 62" stroke="rgba(50,50,50,1)" stroke-width="2" fill="none"></path><path id="SvgjsPath1217" d="M 0 0L 230 0L 230 92L 0 92Z" stroke="none" fill="none"></path><g id="SvgjsG1218"><text id="SvgjsText1219" font-family="微软雅黑" text-anchor="middle" font-size="13px" width="210px" fill="#323232" font-weight="700" align="middle" anchor="middle" family="微软雅黑" size="13px" weight="700" font-style="" opacity="1" y="5.05" transform="rotate(0)"><tspan id="SvgjsTspan1220" dy="16" x="115"><tspan id="SvgjsTspan1221" style="text-decoration:;">Student Online Booking System</tspan></tspan></text></g><g id="SvgjsG1222"><text id="SvgjsText1223" font-family="微软雅黑" text-anchor="start" font-size="13px" width="210px" fill="#323232" font-weight="400" align="middle" anchor="start" family="微软雅黑" size="13px" weight="400" font-style="" opacity="1" y="28.05" transform="rotate(0)"><tspan id="SvgjsTspan1224" dy="16" x="10"><tspan id="SvgjsTspan1225" style="text-decoration:;">purpose: String</tspan></tspan><tspan id="SvgjsTspan1226" dy="16" x="10"><tspan id="SvgjsTspan1227" style="text-decoration:;">referee: String</tspan></tspan></text></g><g id="SvgjsG1228"><text id="SvgjsText1229" font-family="微软雅黑" text-anchor="start" font-size="13px" width="210px" fill="#323232" font-weight="400" align="middle" anchor="start" family="微软雅黑" size="13px" weight="400" font-style="" opacity="1" y="67.05" transform="rotate(0)"></text></g></g><g id="SvgjsG1230" transform="matrix(-1,1.2246467991473532e-16,-1.2246467991473532e-16,-1,570.7561645507812,949.5)"><path id="SvgjsPath1231" d="M 23.125 0L 46.25 20L 0 20Z" stroke="rgba(50,50,50,1)" stroke-width="2" fill-opacity="1" fill="#ffffff"></path><g id="SvgjsG1232"><text id="SvgjsText1233" font-family="微软雅黑" text-anchor="middle" font-size="13px" width="27px" fill="#323232" font-weight="400" align="middle" anchor="middle" family="微软雅黑" size="13px" weight="400" font-style="" opacity="1" y="2.55" transform="rotate(0)"></text></g></g><g id="SvgjsG1234" transform="translate(113.7023943256936,366.21251106262207)"><path id="SvgjsPath1235" d="M 0 4Q 0 0 4 0L 226 0Q 230 0 230 4L 230 86Q 230 90 226 90L 4 90Q 0 90 0 86Z" stroke="rgba(50,50,50,1)" stroke-width="2" fill-opacity="1" fill="#ffffff"></path><path id="SvgjsPath1236" d="M 0 30L 230 30M 0 62L 230 62" stroke="rgba(50,50,50,1)" stroke-width="2" fill="none"></path><path id="SvgjsPath1237" d="M 0 0L 230 0L 230 90L 0 90Z" stroke="none" fill="none"></path><g id="SvgjsG1238"><text id="SvgjsText1239" font-family="微软雅黑" text-anchor="middle" font-size="13px" width="210px" fill="#323232" font-weight="700" align="middle" anchor="middle" family="微软雅黑" size="13px" weight="700" font-style="" opacity="1" y="5.05" transform="rotate(0)"><tspan id="SvgjsTspan1240" dy="16" x="115"><tspan id="SvgjsTspan1241" style="text-decoration:;">Teacher Online Booking System</tspan></tspan></text></g><g id="SvgjsG1242"><text id="SvgjsText1243" font-family="微软雅黑" text-anchor="start" font-size="13px" width="210px" fill="#323232" font-weight="400" align="middle" anchor="start" family="微软雅黑" size="13px" weight="400" font-style="" opacity="1" y="35.05" transform="rotate(0)"><tspan id="SvgjsTspan1244" dy="16" x="10"><tspan id="SvgjsTspan1245" style="text-decoration:;"> </tspan></tspan></text></g><g id="SvgjsG1246"><text id="SvgjsText1247" font-family="微软雅黑" text-anchor="start" font-size="13px" width="210px" fill="#323232" font-weight="400" align="middle" anchor="start" family="微软雅黑" size="13px" weight="400" font-style="" opacity="1" y="67.05" transform="rotate(0)"></text></g></g><g id="SvgjsG1248"><path id="SvgjsPath1249" d="M878.8784228153527 470.6625003814697L878.8784228153527 910.6625003814697L228.7023943256936 910.6625003814697L228.7023943256936 456.21251106262207" stroke="#323232" stroke-width="2" fill="none"></path></g><g id="SvgjsG1250"><path id="SvgjsPath1251" d="M547.6284228153527 972.4125003814697L547.6284228153527 960.9562540054321L547.6311651112628 960.9562540054321L547.6311651112628 949.5000076293945" stroke="#323232" stroke-width="2" fill="none"></path></g><g id="SvgjsG1252" transform="translate(432.62884861668863,778.7125110626221)"><path id="SvgjsPath1253" d="M 0 4Q 0 0 4 0L 226 0Q 230 0 230 4L 230 88Q 230 92 226 92L 4 92Q 0 92 0 88Z" stroke="rgba(50,50,50,1)" stroke-width="2" fill-opacity="1" fill="#ffffff"></path><path id="SvgjsPath1254" d="M 0 30L 230 30M 0 64L 230 64" stroke="rgba(50,50,50,1)" stroke-width="2" fill="none"></path><path id="SvgjsPath1255" d="M 0 0L 230 0L 230 92L 0 92Z" stroke="none" fill="none"></path><g id="SvgjsG1256"><text id="SvgjsText1257" font-family="微软雅黑" text-anchor="middle" font-size="13px" width="210px" fill="#323232" font-weight="700" align="middle" anchor="middle" family="微软雅黑" size="13px" weight="700" font-style="" opacity="1" y="5.05" transform="rotate(0)"><tspan id="SvgjsTspan1258" dy="16" x="115"><tspan id="SvgjsTspan1259" style="text-decoration:;">User</tspan></tspan></text></g><g id="SvgjsG1260"><text id="SvgjsText1261" font-family="微软雅黑" text-anchor="start" font-size="13px" width="210px" fill="#323232" font-weight="400" align="middle" anchor="start" family="微软雅黑" size="13px" weight="400" font-style="" opacity="1" y="28.05" transform="rotate(0)"><tspan id="SvgjsTspan1262" dy="16" x="10"><tspan id="SvgjsTspan1263" style="text-decoration:;">emailAddress: String</tspan></tspan><tspan id="SvgjsTspan1264" dy="16" x="10"><tspan id="SvgjsTspan1265" style="text-decoration:;">programme: String</tspan></tspan></text></g><g id="SvgjsG1266"><text id="SvgjsText1267" font-family="微软雅黑" text-anchor="start" font-size="13px" width="210px" fill="#323232" font-weight="400" align="middle" anchor="start" family="微软雅黑" size="13px" weight="400" font-style="" opacity="1" y="69.05" transform="rotate(0)"></text></g></g><g id="SvgjsG1268" transform="matrix(-1,1.2246467991473532e-16,-1.2246467991473532e-16,-1,569.87451171875,749.765625)"><path id="SvgjsPath1269" d="M 23.125 0L 46.25 20L 0 20Z" stroke="rgba(50,50,50,1)" stroke-width="2" fill-opacity="1" fill="#ffffff"></path><g id="SvgjsG1270"><text id="SvgjsText1271" font-family="微软雅黑" text-anchor="middle" font-size="13px" width="27px" fill="#323232" font-weight="400" align="middle" anchor="middle" family="微软雅黑" size="13px" weight="400" font-style="" opacity="1" y="2.55" transform="rotate(0)"></text></g></g><g id="SvgjsG1272"><path id="SvgjsPath1273" d="M547.6288486166886 778.7125110626221L547.6288486166886 764.2390739917755L546.7495325463751 764.2390739917755L546.7495325463751 749.765636920929" stroke="#323232" stroke-width="2" fill="none"></path></g><g id="SvgjsG1274"><path id="SvgjsPath1275" d="M546.7495325463751 729.765636920929L546.7495325463751 718.5578215122223L546.7495325463751 718.5578215122223L546.7495325463751 707.3500061035156" stroke="#323232" stroke-width="2" fill="none"></path></g><g id="SvgjsG1276"><path id="SvgjsPath1277" d="M547.6311651112628 929.5000076293945L547.6311651112628 921.2750053405762L547.6311651112628 921.2750053405762L547.6311651112628 913.0500030517578" stroke="#323232" stroke-width="2" fill="none"></path></g><g id="SvgjsG1278" transform="translate(1226.2149963378906,216.37109375)"><path id="SvgjsPath1279" d="M 0 4Q 0 0 4 0L 226 0Q 230 0 230 4L 230 86Q 230 90 226 90L 4 90Q 0 90 0 86Z" stroke="rgba(50,50,50,1)" stroke-width="2" fill-opacity="1" fill="#ffffff"></path><path id="SvgjsPath1280" d="M 0 30L 230 30M 0 62L 230 62" stroke="rgba(50,50,50,1)" stroke-width="2" fill="none"></path><path id="SvgjsPath1281" d="M 0 0L 230 0L 230 90L 0 90Z" stroke="none" fill="none"></path><g id="SvgjsG1282"><text id="SvgjsText1283" font-family="微软雅黑" text-anchor="middle" font-size="13px" width="210px" fill="#323232" font-weight="700" align="middle" anchor="middle" family="微软雅黑" size="13px" weight="700" font-style="" opacity="1" y="5.05" transform="rotate(0)"><tspan id="SvgjsTspan1284" dy="16" x="115"><tspan id="SvgjsTspan1285" style="text-decoration:;">Computer</tspan></tspan></text></g><g id="SvgjsG1286"><text id="SvgjsText1287" font-family="微软雅黑" text-anchor="start" font-size="13px" width="210px" fill="#323232" font-weight="400" align="middle" anchor="start" family="微软雅黑" size="13px" weight="400" font-style="" opacity="1" y="35.05" transform="rotate(0)"><tspan id="SvgjsTspan1288" dy="16" x="10"><tspan id="SvgjsTspan1289" style="text-decoration:;"> </tspan></tspan></text></g><g id="SvgjsG1290"><text id="SvgjsText1291" font-family="微软雅黑" text-anchor="start" font-size="13px" width="210px" fill="#323232" font-weight="400" align="middle" anchor="start" family="微软雅黑" size="13px" weight="400" font-style="" opacity="1" y="67.05" transform="rotate(0)"></text></g></g><g id="SvgjsG1292"><path id="SvgjsPath1293" d="M1341.8399963378906 144.015625L1341.8399963378906 180.193359375L1341.2149963378906 180.193359375L1341.2149963378906 216.37109375" stroke="#323232" stroke-width="2" fill="none" marker-end="url(#SvgjsMarker1294)"></path></g><g id="SvgjsG1296" transform="translate(1249.0274963378906,182)"><path id="SvgjsPath1297" d="M 0 0L 160 0L 160 40L 0 40Z" stroke="none" fill="none"></path><g id="SvgjsG1298"><text id="SvgjsText1299" font-family="微软雅黑" text-anchor="middle" font-size="13px" width="160px" fill="#323232" font-weight="400" align="middle" anchor="middle" family="微软雅黑" size="13px" weight="400" font-style="" opacity="1" y="10.05" transform="rotate(0)"><tspan id="SvgjsTspan1300" dy="16" x="80"><tspan id="SvgjsTspan1301" style="text-decoration:;">1</tspan></tspan></text></g></g><g id="SvgjsG1302" transform="translate(1254.4181213378906,132.8125114440918)"><path id="SvgjsPath1303" d="M 0 0L 160 0L 160 40L 0 40Z" stroke="none" fill="none"></path><g id="SvgjsG1304"><text id="SvgjsText1305" font-family="微软雅黑" text-anchor="middle" font-size="13px" width="160px" fill="#323232" font-weight="400" align="middle" anchor="middle" family="微软雅黑" size="13px" weight="400" font-style="" opacity="1" y="10.05" transform="rotate(0)"><tspan id="SvgjsTspan1306" dy="16" x="80"><tspan id="SvgjsTspan1307" style="text-decoration:;">*</tspan></tspan></text></g></g><g id="SvgjsG1308"><path id="SvgjsPath1309" d="M1226.2149963378906 261.37109375L1171.5274963378906 261.37109375L1171.5274963378906 260.75L1116.8399963378906 260.75" stroke="#323232" stroke-width="2" fill="none" marker-end="url(#SvgjsMarker1310)"></path></g><g id="SvgjsG1312" transform="translate(1136.5274963378906,230.5888671875)"><path id="SvgjsPath1313" d="M 0 0L 160 0L 160 40L 0 40Z" stroke="none" fill="none"></path><g id="SvgjsG1314"><text id="SvgjsText1315" font-family="微软雅黑" text-anchor="middle" font-size="13px" width="160px" fill="#323232" font-weight="400" align="middle" anchor="middle" family="微软雅黑" size="13px" weight="400" font-style="" opacity="1" y="10.05" transform="rotate(0)"><tspan id="SvgjsTspan1316" dy="16" x="80"><tspan id="SvgjsTspan1317" style="text-decoration:;">*</tspan></tspan></text></g></g><g id="SvgjsG1318" transform="translate(433.8784228153527,1166.1625003814697)"><path id="SvgjsPath1319" d="M 0 4Q 0 0 4 0L 226 0Q 230 0 230 4L 230 120Q 230 124 226 124L 4 124Q 0 124 0 120Z" stroke="rgba(50,50,50,1)" stroke-width="2" fill-opacity="1" fill="#ffffff"></path><path id="SvgjsPath1320" d="M 0 30L 230 30M 0 96L 230 96" stroke="rgba(50,50,50,1)" stroke-width="2" fill="none"></path><path id="SvgjsPath1321" d="M 0 0L 230 0L 230 124L 0 124Z" stroke="none" fill="none"></path><g id="SvgjsG1322"><text id="SvgjsText1323" font-family="微软雅黑" text-anchor="middle" font-size="13px" width="210px" fill="#323232" font-weight="700" align="middle" anchor="middle" family="微软雅黑" size="13px" weight="700" font-style="" opacity="1" y="5.05" transform="rotate(0)"><tspan id="SvgjsTspan1324" dy="16" x="115"><tspan id="SvgjsTspan1325" style="text-decoration:;">Email</tspan></tspan></text></g><g id="SvgjsG1326"><text id="SvgjsText1327" font-family="微软雅黑" text-anchor="start" font-size="13px" width="210px" fill="#323232" font-weight="400" align="middle" anchor="start" family="微软雅黑" size="13px" weight="400" font-style="" opacity="1" y="28.05" transform="rotate(0)"><tspan id="SvgjsTspan1328" dy="16" x="10"><tspan id="SvgjsTspan1329" style="text-decoration:;">numOfSeat: int</tspan></tspan><tspan id="SvgjsTspan1330" dy="16" x="10"><tspan id="SvgjsTspan1331" style="text-decoration:;">roomNum: String</tspan></tspan><tspan id="SvgjsTspan1332" dy="16" x="10"><tspan id="SvgjsTspan1333" style="text-decoration:;">time: Datetime</tspan></tspan><tspan id="SvgjsTspan1334" dy="16" x="10"><tspan id="SvgjsTspan1335" style="text-decoration:;">date: Datetime</tspan></tspan></text></g><g id="SvgjsG1336"><text id="SvgjsText1337" font-family="微软雅黑" text-anchor="start" font-size="13px" width="210px" fill="#323232" font-weight="400" align="middle" anchor="start" family="微软雅黑" size="13px" weight="400" font-style="" opacity="1" y="101.05" transform="rotate(0)"></text></g></g><g id="SvgjsG1338"><path id="SvgjsPath1339" d="M548.8784228153527 1166.1625003814697L548.8784228153527 1132.2875003814697L547.6284228153527 1132.2875003814697L547.6284228153527 1098.4125003814697" stroke="#323232" stroke-width="2" fill="none"></path><rect id="SvgjsRect1340" width="31" height="16" x="532.7534228153527" y="1124.2875003814697" fill="#ffffff"></rect><text id="SvgjsText1341" font-family="微软雅黑" text-anchor="middle" font-size="13px" width="31px" fill="#323232" font-weight="400" align="top" anchor="middle" family="微软雅黑" size="13px" weight="400" font-style="" opacity="1" y="1122.3375003814697" transform="rotate(0)"><tspan id="SvgjsTspan1342" dy="16" x="548.2534228153527"><tspan id="SvgjsTspan1343" style="text-decoration:;">Send</tspan></tspan></text></g><g id="SvgjsG1344"><path id="SvgjsPath1345" d="M275.9900016784668 567.3499984741211L249.7400016784668 567.3499984741211L249.7400016784668 470.8171122144463L619.0682661133086 470.8171122144463L619.0682661133086 308.31711221444635" stroke="#323232" stroke-width="2" fill="none"></path></g><g id="SvgjsG1346" transform="translate(528.5953034121812,294.5)"><path id="SvgjsPath1347" d="M 0 0L 160 0L 160 40L 0 40Z" stroke="none" fill="none"></path><g id="SvgjsG1348"><text id="SvgjsText1349" font-family="微软雅黑" text-anchor="middle" font-size="13px" width="160px" fill="#323232" font-weight="400" align="middle" anchor="middle" family="微软雅黑" size="13px" weight="400" font-style="" opacity="1" y="10.05" transform="rotate(0)"><tspan id="SvgjsTspan1350" dy="16" x="80"><tspan id="SvgjsTspan1351" style="text-decoration:;">1</tspan></tspan></text></g></g><g id="SvgjsG1352" transform="translate(186.09530341218124,538.25)"><path id="SvgjsPath1353" d="M 0 0L 160 0L 160 40L 0 40Z" stroke="none" fill="none"></path><g id="SvgjsG1354"><text id="SvgjsText1355" font-family="微软雅黑" text-anchor="middle" font-size="13px" width="160px" fill="#323232" font-weight="400" align="middle" anchor="middle" family="微软雅黑" size="13px" weight="400" font-style="" opacity="1" y="10.05" transform="rotate(0)"><tspan id="SvgjsTspan1356" dy="16" x="80"><tspan id="SvgjsTspan1357" style="text-decoration:;">1</tspan></tspan></text></g></g></svg>