<svg id="SvgjsSvg1006" width="1481.8399353027344" height="1315.1599731445312" xmlns="http://www.w3.org/2000/svg" version="1.1" xmlns:xlink="http://www.w3.org/1999/xlink" xmlns:svgjs="http://svgjs.com/svgjs"><defs id="SvgjsDefs1007"><marker id="SvgjsMarker1312" markerWidth="20" markerHeight="12" refX="20" refY="6" viewBox="0 0 20 12" orient="auto" markerUnits="userSpaceOnUse" stroke-dasharray="0,0"><path id="SvgjsPath1313" d="M2,6 L10,2 L18,6 L10,10L2,6" fill="#ffffff" stroke="#323232" stroke-width="2"></path></marker><marker id="SvgjsMarker1328" markerWidth="20" markerHeight="12" refX="20" refY="6" viewBox="0 0 20 12" orient="auto" markerUnits="userSpaceOnUse" stroke-dasharray="0,0"><path id="SvgjsPath1329" d="M2,6 L10,2 L18,6 L10,10L2,6" fill="#ffffff" stroke="#323232" stroke-width="2"></path></marker></defs><g id="SvgjsG1008" transform="translate(477.8399963378906,25)"><path id="SvgjsPath1009" d="M 0 4Q 0 0 4 0L 226 0Q 230 0 230 4L 230 86Q 230 90 226 90L 4 90Q 0 90 0 86Z" stroke="rgba(50,50,50,1)" stroke-width="2" fill-opacity="1" fill="#ffffff"></path><path id="SvgjsPath1010" d="M 0 30L 230 30M 0 60L 230 60" stroke="rgba(50,50,50,1)" stroke-width="2" fill="none"></path><path id="SvgjsPath1011" d="M 0 0L 230 0L 230 90L 0 90Z" stroke="none" fill="none"></path><g id="SvgjsG1012"><text id="SvgjsText1013" font-family="微软雅黑" text-anchor="middle" font-size="13px" width="210px" fill="#323232" font-weight="700" align="middle" anchor="middle" family="微软雅黑" size="13px" weight="700" font-style="" opacity="1" y="5.05" transform="rotate(0)"><tspan id="SvgjsTspan1014" dy="16" x="115"><tspan id="SvgjsTspan1015" style="text-decoration:;">Room</tspan></tspan></text></g><g id="SvgjsG1016"><text id="SvgjsText1017" font-family="微软雅黑" text-anchor="start" font-size="13px" width="210px" fill="#323232" font-weight="400" align="middle" anchor="start" family="微软雅黑" size="13px" weight="400" font-style="" opacity="1" y="35.05" transform="rotate(0)"><tspan id="SvgjsTspan1018" dy="16" x="10"><tspan id="SvgjsTspan1019" style="text-decoration:;">timeSlot</tspan></tspan></text></g><g id="SvgjsG1020"><text id="SvgjsText1021" font-family="微软雅黑" text-anchor="start" font-size="13px" width="210px" fill="#323232" font-weight="400" align="middle" anchor="start" family="微软雅黑" size="13px" weight="400" font-style="" opacity="1" y="65.05" transform="rotate(0)"></text></g></g><g id="SvgjsG1022" transform="translate(57.839996337890625,215.75)"><path id="SvgjsPath1023" d="M 0 4Q 0 0 4 0L 226 0Q 230 0 230 4L 230 116Q 230 120 226 120L 4 120Q 0 120 0 116Z" stroke="rgba(50,50,50,1)" stroke-width="2" fill-opacity="1" fill="#ffffff"></path><path id="SvgjsPath1024" d="M 0 30L 230 30M 0 62L 230 62" stroke="rgba(50,50,50,1)" stroke-width="2" fill="none"></path><path id="SvgjsPath1025" d="M 0 0L 230 0L 230 120L 0 120Z" stroke="none" fill="none"></path><g id="SvgjsG1026"><text id="SvgjsText1027" font-family="微软雅黑" text-anchor="middle" font-size="13px" width="210px" fill="#323232" font-weight="700" align="middle" anchor="middle" family="微软雅黑" size="13px" weight="700" font-style="" opacity="1" y="5.05" transform="rotate(0)"><tspan id="SvgjsTspan1028" dy="16" x="115"><tspan id="SvgjsTspan1029" style="text-decoration:;">Classroom</tspan></tspan></text></g><g id="SvgjsG1030"><text id="SvgjsText1031" font-family="微软雅黑" text-anchor="start" font-size="13px" width="210px" fill="#323232" font-weight="400" align="middle" anchor="start" family="微软雅黑" size="13px" weight="400" font-style="" opacity="1" y="35.05" transform="rotate(0)"><tspan id="SvgjsTspan1032" dy="16" x="10"><tspan id="SvgjsTspan1033" style="text-decoration:;">availableSeats: int</tspan></tspan></text></g><g id="SvgjsG1034"><text id="SvgjsText1035" font-family="微软雅黑" text-anchor="start" font-size="13px" width="210px" fill="#323232" font-weight="400" align="middle" anchor="start" family="微软雅黑" size="13px" weight="400" font-style="" opacity="1" y="66.05" transform="rotate(0)"><tspan id="SvgjsTspan1036" dy="16" x="10"><tspan id="SvgjsTspan1037" style="text-decoration:;">+ operation1(params):returnType</tspan></tspan><tspan id="SvgjsTspan1038" dy="16" x="10"><tspan id="SvgjsTspan1039" style="text-decoration:;">- operation2(params)</tspan></tspan><tspan id="SvgjsTspan1040" dy="16" x="10"><tspan id="SvgjsTspan1041" style="text-decoration:;">- operation3()</tspan></tspan></text></g></g><g id="SvgjsG1042" transform="translate(337.8399963378906,215.75)"><path id="SvgjsPath1043" d="M 0 4Q 0 0 4 0L 226 0Q 230 0 230 4L 230 88Q 230 92 226 92L 4 92Q 0 92 0 88Z" stroke="rgba(50,50,50,1)" stroke-width="2" fill-opacity="1" fill="#ffffff"></path><path id="SvgjsPath1044" d="M 0 30L 230 30M 0 62L 230 62" stroke="rgba(50,50,50,1)" stroke-width="2" fill="none"></path><path id="SvgjsPath1045" d="M 0 0L 230 0L 230 92L 0 92Z" stroke="none" fill="none"></path><g id="SvgjsG1046"><text id="SvgjsText1047" font-family="微软雅黑" text-anchor="middle" font-size="13px" width="210px" fill="#323232" font-weight="700" align="middle" anchor="middle" family="微软雅黑" size="13px" weight="700" font-style="" opacity="1" y="5.05" transform="rotate(0)"><tspan id="SvgjsTspan1048" dy="16" x="115"><tspan id="SvgjsTspan1049" style="text-decoration:;">Lecture Hall</tspan></tspan></text></g><g id="SvgjsG1050"><text id="SvgjsText1051" font-family="微软雅黑" text-anchor="start" font-size="13px" width="210px" fill="#323232" font-weight="400" align="middle" anchor="start" family="微软雅黑" size="13px" weight="400" font-style="" opacity="1" y="28.05" transform="rotate(0)"><tspan id="SvgjsTspan1052" dy="16" x="10"><tspan id="SvgjsTspan1053" style="text-decoration:;">availableSeats: int</tspan></tspan><tspan id="SvgjsTspan1054" dy="16" x="10"><tspan id="SvgjsTspan1055" style="text-decoration:;">equipments: list</tspan></tspan></text></g><g id="SvgjsG1056"><text id="SvgjsText1057" font-family="微软雅黑" text-anchor="start" font-size="13px" width="210px" fill="#323232" font-weight="400" align="middle" anchor="start" family="微软雅黑" size="13px" weight="400" font-style="" opacity="1" y="67.05" transform="rotate(0)"><tspan id="SvgjsTspan1058" dy="16" x="10"><tspan id="SvgjsTspan1059" style="text-decoration:;">changeEquipments()</tspan></tspan></text></g></g><g id="SvgjsG1060" transform="translate(618.8399963378906,215.75)"><path id="SvgjsPath1061" d="M 0 4Q 0 0 4 0L 226 0Q 230 0 230 4L 230 90Q 230 94 226 94L 4 94Q 0 94 0 90Z" stroke="rgba(50,50,50,1)" stroke-width="2" fill-opacity="1" fill="#ffffff"></path><path id="SvgjsPath1062" d="M 0 30L 230 30M 0 62L 230 62" stroke="rgba(50,50,50,1)" stroke-width="2" fill="none"></path><path id="SvgjsPath1063" d="M 0 0L 230 0L 230 94L 0 94Z" stroke="none" fill="none"></path><g id="SvgjsG1064"><text id="SvgjsText1065" font-family="微软雅黑" text-anchor="middle" font-size="13px" width="210px" fill="#323232" font-weight="700" align="middle" anchor="middle" family="微软雅黑" size="13px" weight="700" font-style="" opacity="1" y="5.05" transform="rotate(0)"><tspan id="SvgjsTspan1066" dy="16" x="115"><tspan id="SvgjsTspan1067" style="text-decoration:;">Activity Room</tspan></tspan></text></g><g id="SvgjsG1068"><text id="SvgjsText1069" font-family="微软雅黑" text-anchor="start" font-size="13px" width="210px" fill="#323232" font-weight="400" align="middle" anchor="start" family="微软雅黑" size="13px" weight="400" font-style="" opacity="1" y="28.05" transform="rotate(0)"><tspan id="SvgjsTspan1070" dy="16" x="10"><tspan id="SvgjsTspan1071" style="text-decoration:;">equipments: list</tspan></tspan><tspan id="SvgjsTspan1072" dy="16" x="10"><tspan id="SvgjsTspan1073" style="text-decoration:;">services: list</tspan></tspan></text></g><g id="SvgjsG1074"><text id="SvgjsText1075" font-family="微软雅黑" text-anchor="start" font-size="13px" width="210px" fill="#323232" font-weight="400" align="middle" anchor="start" family="微软雅黑" size="13px" weight="400" font-style="" opacity="1" y="60.05" transform="rotate(0)"><tspan id="SvgjsTspan1076" dy="16" x="10"><tspan id="SvgjsTspan1077" style="text-decoration:;">changeEquipments()</tspan></tspan><tspan id="SvgjsTspan1078" dy="16" x="10"><tspan id="SvgjsTspan1079" style="text-decoration:;">changeServices()</tspan></tspan></text></g></g><g id="SvgjsG1080" transform="translate(886.8399963378906,215.75)"><path id="SvgjsPath1081" d="M 0 4Q 0 0 4 0L 226 0Q 230 0 230 4L 230 86Q 230 90 226 90L 4 90Q 0 90 0 86Z" stroke="rgba(50,50,50,1)" stroke-width="2" fill-opacity="1" fill="#ffffff"></path><path id="SvgjsPath1082" d="M 0 30L 230 30M 0 60L 230 60" stroke="rgba(50,50,50,1)" stroke-width="2" fill="none"></path><path id="SvgjsPath1083" d="M 0 0L 230 0L 230 90L 0 90Z" stroke="none" fill="none"></path><g id="SvgjsG1084"><text id="SvgjsText1085" font-family="微软雅黑" text-anchor="middle" font-size="13px" width="210px" fill="#323232" font-weight="700" align="middle" anchor="middle" family="微软雅黑" size="13px" weight="700" font-style="" opacity="1" y="5.05" transform="rotate(0)"><tspan id="SvgjsTspan1086" dy="16" x="115"><tspan id="SvgjsTspan1087" style="text-decoration:;">Computer Lab</tspan></tspan></text></g><g id="SvgjsG1088"><text id="SvgjsText1089" font-family="微软雅黑" text-anchor="start" font-size="13px" width="210px" fill="#323232" font-weight="400" align="middle" anchor="start" family="微软雅黑" size="13px" weight="400" font-style="" opacity="1" y="35.05" transform="rotate(0)"><tspan id="SvgjsTspan1090" dy="16" x="10"><tspan id="SvgjsTspan1091" style="text-decoration:;">availableSeats: int</tspan></tspan></text></g><g id="SvgjsG1092"><text id="SvgjsText1093" font-family="微软雅黑" text-anchor="start" font-size="13px" width="210px" fill="#323232" font-weight="400" align="middle" anchor="start" family="微软雅黑" size="13px" weight="400" font-style="" opacity="1" y="65.05" transform="rotate(0)"><tspan id="SvgjsTspan1094" dy="16" x="10"><tspan id="SvgjsTspan1095" style="text-decoration:;">changeSoftware()</tspan></tspan></text></g></g><g id="SvgjsG1096" transform="translate(1226.8399963378906,52.015625)"><path id="SvgjsPath1097" d="M 0 4Q 0 0 4 0L 226 0Q 230 0 230 4L 230 88Q 230 92 226 92L 4 92Q 0 92 0 88Z" stroke="rgba(50,50,50,1)" stroke-width="2" fill-opacity="1" fill="#ffffff"></path><path id="SvgjsPath1098" d="M 0 30L 230 30M 0 62L 230 62" stroke="rgba(50,50,50,1)" stroke-width="2" fill="none"></path><path id="SvgjsPath1099" d="M 0 0L 230 0L 230 92L 0 92Z" stroke="none" fill="none"></path><g id="SvgjsG1100"><text id="SvgjsText1101" font-family="微软雅黑" text-anchor="middle" font-size="13px" width="210px" fill="#323232" font-weight="700" align="middle" anchor="middle" family="微软雅黑" size="13px" weight="700" font-style="" opacity="1" y="5.05" transform="rotate(0)"><tspan id="SvgjsTspan1102" dy="16" x="115"><tspan id="SvgjsTspan1103" style="text-decoration:;">Software Application</tspan></tspan></text></g><g id="SvgjsG1104"><text id="SvgjsText1105" font-family="微软雅黑" text-anchor="start" font-size="13px" width="210px" fill="#323232" font-weight="400" align="middle" anchor="start" family="微软雅黑" size="13px" weight="400" font-style="" opacity="1" y="28.05" transform="rotate(0)"><tspan id="SvgjsTspan1106" dy="16" x="10"><tspan id="SvgjsTspan1107" style="text-decoration:;">softwareName: String</tspan></tspan><tspan id="SvgjsTspan1108" dy="16" x="10"><tspan id="SvgjsTspan1109" style="text-decoration:;">versionNum: String</tspan></tspan></text></g><g id="SvgjsG1110"><text id="SvgjsText1111" font-family="微软雅黑" text-anchor="start" font-size="13px" width="210px" fill="#323232" font-weight="400" align="middle" anchor="start" family="微软雅黑" size="13px" weight="400" font-style="" opacity="1" y="67.05" transform="rotate(0)"></text></g></g><g id="SvgjsG1112" transform="translate(1046.5274963378906,226.8388671875)"><path id="SvgjsPath1113" d="M 0 0L 160 0L 160 40L 0 40Z" stroke="none" fill="none"></path><g id="SvgjsG1114"><text id="SvgjsText1115" font-family="微软雅黑" text-anchor="middle" font-size="13px" width="160px" fill="#323232" font-weight="400" align="middle" anchor="middle" family="微软雅黑" size="13px" weight="400" font-style="" opacity="1" y="10.05" transform="rotate(0)"><tspan id="SvgjsTspan1116" dy="16" x="80"><tspan id="SvgjsTspan1117" style="text-decoration:;">1</tspan></tspan></text></g></g><g id="SvgjsG1118"><path id="SvgjsPath1119" d="M452.8399963378906 215.75L452.8399963378906 197.25L452.8399963378906 197.25L452.8399963378906 178.75" stroke="#323232" stroke-width="2" fill="none"></path></g><g id="SvgjsG1120"><path id="SvgjsPath1121" d="M733.8399963378906 215.75L733.8399963378906 177.90000915527344L594.0899963378906 177.90000915527344" stroke="#323232" stroke-width="2" fill="none"></path></g><g id="SvgjsG1122"><path id="SvgjsPath1123" d="M1001.8399963378906 215.75L1001.8399963378906 177.75L734.8399963378906 177.75" stroke="#323232" stroke-width="2" fill="none"></path></g><g id="SvgjsG1124" transform="translate(275.9900016784668,490.3499984741211)"><path id="SvgjsPath1125" d="M 0 4Q 0 0 4 0L 226 0Q 230 0 230 4L 230 150Q 230 154 226 154L 4 154Q 0 154 0 150Z" stroke="rgba(50,50,50,1)" stroke-width="2" fill-opacity="1" fill="#ffffff"></path><path id="SvgjsPath1126" d="M 0 30L 230 30M 0 96L 230 96" stroke="rgba(50,50,50,1)" stroke-width="2" fill="none"></path><path id="SvgjsPath1127" d="M 0 0L 230 0L 230 154L 0 154Z" stroke="none" fill="none"></path><g id="SvgjsG1128"><text id="SvgjsText1129" font-family="微软雅黑" text-anchor="middle" font-size="13px" width="210px" fill="#323232" font-weight="700" align="middle" anchor="middle" family="微软雅黑" size="13px" weight="700" font-style="" opacity="1" y="5.05" transform="rotate(0)"><tspan id="SvgjsTspan1130" dy="16" x="115"><tspan id="SvgjsTspan1131" style="text-decoration:;">Teacher</tspan></tspan></text></g><g id="SvgjsG1132"><text id="SvgjsText1133" font-family="微软雅黑" text-anchor="start" font-size="13px" width="210px" fill="#323232" font-weight="400" align="middle" anchor="start" family="微软雅黑" size="13px" weight="400" font-style="" opacity="1" y="28.05" transform="rotate(0)"><tspan id="SvgjsTspan1134" dy="16" x="10"><tspan id="SvgjsTspan1135" style="text-decoration:;">name: String</tspan></tspan><tspan id="SvgjsTspan1136" dy="16" x="10"><tspan id="SvgjsTspan1137" style="text-decoration:;">staffID: String</tspan></tspan><tspan id="SvgjsTspan1138" dy="16" x="10"><tspan id="SvgjsTspan1139" style="text-decoration:;">officeNum: String</tspan></tspan><tspan id="SvgjsTspan1140" dy="16" x="10"><tspan id="SvgjsTspan1141" style="text-decoration:;">officePhoneNum: String</tspan></tspan></text></g><g id="SvgjsG1142"><text id="SvgjsText1143" font-family="微软雅黑" text-anchor="start" font-size="13px" width="210px" fill="#323232" font-weight="400" align="middle" anchor="start" family="微软雅黑" size="13px" weight="400" font-style="" opacity="1" y="100.05" transform="rotate(0)"><tspan id="SvgjsTspan1144" dy="16" x="10"><tspan id="SvgjsTspan1145" style="text-decoration:;">+ operation1(params):returnType</tspan></tspan><tspan id="SvgjsTspan1146" dy="16" x="10"><tspan id="SvgjsTspan1147" style="text-decoration:;">- operation2(params)</tspan></tspan><tspan id="SvgjsTspan1148" dy="16" x="10"><tspan id="SvgjsTspan1149" style="text-decoration:;">- operation3()</tspan></tspan></text></g></g><g id="SvgjsG1150" transform="translate(618.8581604212523,538.6625003814697)"><path id="SvgjsPath1151" d="M 0 4Q 0 0 4 0L 226 0Q 230 0 230 4L 230 134Q 230 138 226 138L 4 138Q 0 138 0 134Z" stroke="rgba(50,50,50,1)" stroke-width="2" fill-opacity="1" fill="#ffffff"></path><path id="SvgjsPath1152" d="M 0 30L 230 30M 0 80L 230 80" stroke="rgba(50,50,50,1)" stroke-width="2" fill="none"></path><path id="SvgjsPath1153" d="M 0 0L 230 0L 230 138L 0 138Z" stroke="none" fill="none"></path><g id="SvgjsG1154"><text id="SvgjsText1155" font-family="微软雅黑" text-anchor="middle" font-size="13px" width="210px" fill="#323232" font-weight="700" align="middle" anchor="middle" family="微软雅黑" size="13px" weight="700" font-style="" opacity="1" y="5.05" transform="rotate(0)"><tspan id="SvgjsTspan1156" dy="16" x="115"><tspan id="SvgjsTspan1157" style="text-decoration:;">Student</tspan></tspan></text></g><g id="SvgjsG1158"><text id="SvgjsText1159" font-family="微软雅黑" text-anchor="start" font-size="13px" width="210px" fill="#323232" font-weight="400" align="middle" anchor="start" family="微软雅黑" size="13px" weight="400" font-style="" opacity="1" y="28.05" transform="rotate(0)"><tspan id="SvgjsTspan1160" dy="16" x="10"><tspan id="SvgjsTspan1161" style="text-decoration:;">name: String</tspan></tspan><tspan id="SvgjsTspan1162" dy="16" x="10"><tspan id="SvgjsTspan1163" style="text-decoration:;">studentID: String</tspan></tspan><tspan id="SvgjsTspan1164" dy="16" x="10"><tspan id="SvgjsTspan1165" style="text-decoration:;">mobilePhoneNum: String</tspan></tspan></text></g><g id="SvgjsG1166"><text id="SvgjsText1167" font-family="微软雅黑" text-anchor="start" font-size="13px" width="210px" fill="#323232" font-weight="400" align="middle" anchor="start" family="微软雅黑" size="13px" weight="400" font-style="" opacity="1" y="84.05" transform="rotate(0)"><tspan id="SvgjsTspan1168" dy="16" x="10"><tspan id="SvgjsTspan1169" style="text-decoration:;">+ operation1(params):returnType</tspan></tspan><tspan id="SvgjsTspan1170" dy="16" x="10"><tspan id="SvgjsTspan1171" style="text-decoration:;">- operation2(params)</tspan></tspan><tspan id="SvgjsTspan1172" dy="16" x="10"><tspan id="SvgjsTspan1173" style="text-decoration:;">- operation3()</tspan></tspan></text></g></g><g id="SvgjsG1174"><path id="SvgjsPath1175" d="M733.8581604212523 538.6625003814697L733.8581604212523 424.20625019073486L733.8399963378906 424.20625019073486L733.8399963378906 309.75" stroke="#323232" stroke-width="2" fill="none"></path><rect id="SvgjsRect1176" width="32" height="16" x="717.8490783795714" y="416.20625019073486" fill="#ffffff"></rect><text id="SvgjsText1177" font-family="微软雅黑" text-anchor="middle" font-size="13px" width="32px" fill="#323232" font-weight="400" align="top" anchor="middle" family="微软雅黑" size="13px" weight="400" font-style="" opacity="1" y="414.2562501907349" transform="rotate(0)"><tspan id="SvgjsTspan1178" dy="16" x="733.8490783795714"><tspan id="SvgjsTspan1179" style="text-decoration:;">Book</tspan></tspan></text></g><g id="SvgjsG1180" transform="translate(662.3453034121812,295.75)"><path id="SvgjsPath1181" d="M 0 0L 160 0L 160 40L 0 40Z" stroke="none" fill="none"></path><g id="SvgjsG1182"><text id="SvgjsText1183" font-family="微软雅黑" text-anchor="middle" font-size="13px" width="160px" fill="#323232" font-weight="400" align="middle" anchor="middle" family="微软雅黑" size="13px" weight="400" font-style="" opacity="1" y="10.05" transform="rotate(0)"><tspan id="SvgjsTspan1184" dy="16" x="80"><tspan id="SvgjsTspan1185" style="text-decoration:;">1</tspan></tspan></text></g></g><g id="SvgjsG1186" transform="translate(664.3399963378906,510.75)"><path id="SvgjsPath1187" d="M 0 0L 160 0L 160 40L 0 40Z" stroke="none" fill="none"></path><g id="SvgjsG1188"><text id="SvgjsText1189" font-family="微软雅黑" text-anchor="middle" font-size="13px" width="160px" fill="#323232" font-weight="400" align="middle" anchor="middle" family="微软雅黑" size="13px" weight="400" font-style="" opacity="1" y="10.05" transform="rotate(0)"><tspan id="SvgjsTspan1190" dy="16" x="80"><tspan id="SvgjsTspan1191" style="text-decoration:;">1</tspan></tspan></text></g></g><g id="SvgjsG1192"><path id="SvgjsPath1193" d="M477.8399963378906 70L30.990001678466797 70L30.990001678466797 583.3499984741211L275.9900016784668 583.3499984741211" stroke="#323232" stroke-width="2" fill="none"></path><rect id="SvgjsRect1194" width="32" height="16" x="14.990001678466797" y="217.75000190734863" fill="#ffffff"></rect><text id="SvgjsText1195" font-family="微软雅黑" text-anchor="middle" font-size="13px" width="32px" fill="#323232" font-weight="400" align="top" anchor="middle" family="微软雅黑" size="13px" weight="400" font-style="" opacity="1" y="215.80000190734864" transform="rotate(0)"><tspan id="SvgjsTspan1196" dy="16" x="30.990001678466797"><tspan id="SvgjsTspan1197" style="text-decoration:;">Book</tspan></tspan></text></g><g id="SvgjsG1198" transform="translate(432.6284228153527,972.4125003814697)"><path id="SvgjsPath1199" d="M 0 4Q 0 0 4 0L 226 0Q 230 0 230 4L 230 122Q 230 126 226 126L 4 126Q 0 126 0 122Z" stroke="rgba(50,50,50,1)" stroke-width="2" fill-opacity="1" fill="#ffffff"></path><path id="SvgjsPath1200" d="M 0 30L 230 30M 0 62L 230 62" stroke="rgba(50,50,50,1)" stroke-width="2" fill="none"></path><path id="SvgjsPath1201" d="M 0 0L 230 0L 230 126L 0 126Z" stroke="none" fill="none"></path><g id="SvgjsG1202"><text id="SvgjsText1203" font-family="微软雅黑" text-anchor="middle" font-size="13px" width="210px" fill="#323232" font-weight="700" align="middle" anchor="middle" family="微软雅黑" size="13px" weight="700" font-style="" opacity="1" y="5.05" transform="rotate(0)"><tspan id="SvgjsTspan1204" dy="16" x="115"><tspan id="SvgjsTspan1205" style="text-decoration:;">Online Booking System</tspan></tspan></text></g><g id="SvgjsG1206"><text id="SvgjsText1207" font-family="微软雅黑" text-anchor="start" font-size="13px" width="210px" fill="#323232" font-weight="400" align="middle" anchor="start" family="微软雅黑" size="13px" weight="400" font-style="" opacity="1" y="28.05" transform="rotate(0)"><tspan id="SvgjsTspan1208" dy="16" x="10"><tspan id="SvgjsTspan1209" style="text-decoration:;">date: Datetime</tspan></tspan><tspan id="SvgjsTspan1210" dy="16" x="10"><tspan id="SvgjsTspan1211" style="text-decoration:;">timeSlot: Datetime</tspan></tspan></text></g><g id="SvgjsG1212"><text id="SvgjsText1213" font-family="微软雅黑" text-anchor="start" font-size="13px" width="210px" fill="#323232" font-weight="400" align="middle" anchor="start" family="微软雅黑" size="13px" weight="400" font-style="" opacity="1" y="60.05" transform="rotate(0)"><tspan id="SvgjsTspan1214" dy="16" x="10"><tspan id="SvgjsTspan1215" style="text-decoration:;">checkRoomAvailable()</tspan></tspan><tspan id="SvgjsTspan1216" dy="16" x="10"><tspan id="SvgjsTspan1217" style="text-decoration:;">sendSuccessfulBookingInfo()</tspan></tspan><tspan id="SvgjsTspan1218" dy="16" x="10"><tspan id="SvgjsTspan1219" style="text-decoration:;">sendFailedMessage()</tspan></tspan><tspan id="SvgjsTspan1220" dy="16" x="10"><tspan id="SvgjsTspan1221" style="text-decoration:;">updateTimeSlotIfBooked()</tspan></tspan></text></g></g><g id="SvgjsG1222" transform="translate(571.6681180000305,126.65000915527344)"><path id="SvgjsPath1223" d="M 21.450002670288086 0L 42.90000534057617 20L 0 20Z" stroke="rgba(50,50,50,1)" stroke-width="2" fill-opacity="1" fill="#ffffff"></path><g id="SvgjsG1224"><text id="SvgjsText1225" font-family="微软雅黑" text-anchor="middle" font-size="13px" width="23px" fill="#323232" font-weight="400" align="middle" anchor="middle" family="微软雅黑" size="13px" weight="400" font-style="" opacity="1" y="2.55" transform="rotate(0)"></text></g></g><g id="SvgjsG1226"><path id="SvgjsPath1227" d="M593.1181206703186 126.65000915527344L593.1181206703186 120.82500457763672L592.8399963378906 120.82500457763672L592.8399963378906 115" stroke="#323232" stroke-width="2" fill="none"></path></g><g id="SvgjsG1228"><path id="SvgjsPath1229" d="M172.83999633789062 215.75L172.83999633789062 177.45000457763672L593.1181206703186 177.45000457763672L593.1181206703186 146.65000915527344" stroke="#323232" stroke-width="2" fill="none"></path></g><g id="SvgjsG1230"><path id="SvgjsPath1231" d="M390.9900016784668 644.3499984741211L390.9900016784668 706.6625003814697L733.8581604212523 706.6625003814697L733.8581604212523 676.6625003814697" stroke="#323232" stroke-width="2" fill="none"></path></g><g id="SvgjsG1232" transform="translate(763.8784228153527,378.6625003814697)"><path id="SvgjsPath1233" d="M 0 4Q 0 0 4 0L 226 0Q 230 0 230 4L 230 88Q 230 92 226 92L 4 92Q 0 92 0 88Z" stroke="rgba(50,50,50,1)" stroke-width="2" fill-opacity="1" fill="#ffffff"></path><path id="SvgjsPath1234" d="M 0 30L 230 30M 0 62L 230 62" stroke="rgba(50,50,50,1)" stroke-width="2" fill="none"></path><path id="SvgjsPath1235" d="M 0 0L 230 0L 230 92L 0 92Z" stroke="none" fill="none"></path><g id="SvgjsG1236"><text id="SvgjsText1237" font-family="微软雅黑" text-anchor="middle" font-size="13px" width="210px" fill="#323232" font-weight="700" align="middle" anchor="middle" family="微软雅黑" size="13px" weight="700" font-style="" opacity="1" y="5.05" transform="rotate(0)"><tspan id="SvgjsTspan1238" dy="16" x="115"><tspan id="SvgjsTspan1239" style="text-decoration:;">Student Online Booking System</tspan></tspan></text></g><g id="SvgjsG1240"><text id="SvgjsText1241" font-family="微软雅黑" text-anchor="start" font-size="13px" width="210px" fill="#323232" font-weight="400" align="middle" anchor="start" family="微软雅黑" size="13px" weight="400" font-style="" opacity="1" y="28.05" transform="rotate(0)"><tspan id="SvgjsTspan1242" dy="16" x="10"><tspan id="SvgjsTspan1243" style="text-decoration:;">purpose: String</tspan></tspan><tspan id="SvgjsTspan1244" dy="16" x="10"><tspan id="SvgjsTspan1245" style="text-decoration:;">referee: String</tspan></tspan></text></g><g id="SvgjsG1246"><text id="SvgjsText1247" font-family="微软雅黑" text-anchor="start" font-size="13px" width="210px" fill="#323232" font-weight="400" align="middle" anchor="start" family="微软雅黑" size="13px" weight="400" font-style="" opacity="1" y="67.05" transform="rotate(0)"></text></g></g><g id="SvgjsG1248" transform="matrix(-1,1.2246467991473532e-16,-1.2246467991473532e-16,-1,570.7561645507812,949.5)"><path id="SvgjsPath1249" d="M 23.125 0L 46.25 20L 0 20Z" stroke="rgba(50,50,50,1)" stroke-width="2" fill-opacity="1" fill="#ffffff"></path><g id="SvgjsG1250"><text id="SvgjsText1251" font-family="微软雅黑" text-anchor="middle" font-size="13px" width="27px" fill="#323232" font-weight="400" align="middle" anchor="middle" family="微软雅黑" size="13px" weight="400" font-style="" opacity="1" y="2.55" transform="rotate(0)"></text></g></g><g id="SvgjsG1252" transform="translate(113.7023943256936,366.21251106262207)"><path id="SvgjsPath1253" d="M 0 4Q 0 0 4 0L 226 0Q 230 0 230 4L 230 86Q 230 90 226 90L 4 90Q 0 90 0 86Z" stroke="rgba(50,50,50,1)" stroke-width="2" fill-opacity="1" fill="#ffffff"></path><path id="SvgjsPath1254" d="M 0 30L 230 30M 0 62L 230 62" stroke="rgba(50,50,50,1)" stroke-width="2" fill="none"></path><path id="SvgjsPath1255" d="M 0 0L 230 0L 230 90L 0 90Z" stroke="none" fill="none"></path><g id="SvgjsG1256"><text id="SvgjsText1257" font-family="微软雅黑" text-anchor="middle" font-size="13px" width="210px" fill="#323232" font-weight="700" align="middle" anchor="middle" family="微软雅黑" size="13px" weight="700" font-style="" opacity="1" y="5.05" transform="rotate(0)"><tspan id="SvgjsTspan1258" dy="16" x="115"><tspan id="SvgjsTspan1259" style="text-decoration:;">Teacher Online Booking System</tspan></tspan></text></g><g id="SvgjsG1260"><text id="SvgjsText1261" font-family="微软雅黑" text-anchor="start" font-size="13px" width="210px" fill="#323232" font-weight="400" align="middle" anchor="start" family="微软雅黑" size="13px" weight="400" font-style="" opacity="1" y="35.05" transform="rotate(0)"><tspan id="SvgjsTspan1262" dy="16" x="10"><tspan id="SvgjsTspan1263" style="text-decoration:;"> </tspan></tspan></text></g><g id="SvgjsG1264"><text id="SvgjsText1265" font-family="微软雅黑" text-anchor="start" font-size="13px" width="210px" fill="#323232" font-weight="400" align="middle" anchor="start" family="微软雅黑" size="13px" weight="400" font-style="" opacity="1" y="67.05" transform="rotate(0)"></text></g></g><g id="SvgjsG1266"><path id="SvgjsPath1267" d="M878.8784228153527 470.6625003814697L878.8784228153527 910.6625003814697L228.7023943256936 910.6625003814697L228.7023943256936 456.21251106262207" stroke="#323232" stroke-width="2" fill="none"></path></g><g id="SvgjsG1268"><path id="SvgjsPath1269" d="M547.6284228153527 972.4125003814697L547.6284228153527 960.9562540054321L547.6311651112628 960.9562540054321L547.6311651112628 949.5000076293945" stroke="#323232" stroke-width="2" fill="none"></path></g><g id="SvgjsG1270" transform="translate(432.62884861668863,778.7125110626221)"><path id="SvgjsPath1271" d="M 0 4Q 0 0 4 0L 226 0Q 230 0 230 4L 230 88Q 230 92 226 92L 4 92Q 0 92 0 88Z" stroke="rgba(50,50,50,1)" stroke-width="2" fill-opacity="1" fill="#ffffff"></path><path id="SvgjsPath1272" d="M 0 30L 230 30M 0 64L 230 64" stroke="rgba(50,50,50,1)" stroke-width="2" fill="none"></path><path id="SvgjsPath1273" d="M 0 0L 230 0L 230 92L 0 92Z" stroke="none" fill="none"></path><g id="SvgjsG1274"><text id="SvgjsText1275" font-family="微软雅黑" text-anchor="middle" font-size="13px" width="210px" fill="#323232" font-weight="700" align="middle" anchor="middle" family="微软雅黑" size="13px" weight="700" font-style="" opacity="1" y="5.05" transform="rotate(0)"><tspan id="SvgjsTspan1276" dy="16" x="115"><tspan id="SvgjsTspan1277" style="text-decoration:;">User</tspan></tspan></text></g><g id="SvgjsG1278"><text id="SvgjsText1279" font-family="微软雅黑" text-anchor="start" font-size="13px" width="210px" fill="#323232" font-weight="400" align="middle" anchor="start" family="微软雅黑" size="13px" weight="400" font-style="" opacity="1" y="28.05" transform="rotate(0)"><tspan id="SvgjsTspan1280" dy="16" x="10"><tspan id="SvgjsTspan1281" style="text-decoration:;">emailAddress: String</tspan></tspan><tspan id="SvgjsTspan1282" dy="16" x="10"><tspan id="SvgjsTspan1283" style="text-decoration:;">programme: String</tspan></tspan></text></g><g id="SvgjsG1284"><text id="SvgjsText1285" font-family="微软雅黑" text-anchor="start" font-size="13px" width="210px" fill="#323232" font-weight="400" align="middle" anchor="start" family="微软雅黑" size="13px" weight="400" font-style="" opacity="1" y="69.05" transform="rotate(0)"></text></g></g><g id="SvgjsG1286" transform="matrix(-1,1.2246467991473532e-16,-1.2246467991473532e-16,-1,569.87451171875,749.765625)"><path id="SvgjsPath1287" d="M 23.125 0L 46.25 20L 0 20Z" stroke="rgba(50,50,50,1)" stroke-width="2" fill-opacity="1" fill="#ffffff"></path><g id="SvgjsG1288"><text id="SvgjsText1289" font-family="微软雅黑" text-anchor="middle" font-size="13px" width="27px" fill="#323232" font-weight="400" align="middle" anchor="middle" family="微软雅黑" size="13px" weight="400" font-style="" opacity="1" y="2.55" transform="rotate(0)"></text></g></g><g id="SvgjsG1290"><path id="SvgjsPath1291" d="M547.6288486166886 778.7125110626221L547.6288486166886 764.2390739917755L546.7495325463751 764.2390739917755L546.7495325463751 749.765636920929" stroke="#323232" stroke-width="2" fill="none"></path></g><g id="SvgjsG1292"><path id="SvgjsPath1293" d="M546.7495325463751 729.765636920929L546.7495325463751 718.5578215122223L546.7495325463751 718.5578215122223L546.7495325463751 707.3500061035156" stroke="#323232" stroke-width="2" fill="none"></path></g><g id="SvgjsG1294"><path id="SvgjsPath1295" d="M547.6311651112628 929.5000076293945L547.6311651112628 921.2750053405762L547.6311651112628 921.2750053405762L547.6311651112628 913.0500030517578" stroke="#323232" stroke-width="2" fill="none"></path></g><g id="SvgjsG1296" transform="translate(1226.2149963378906,216.37109375)"><path id="SvgjsPath1297" d="M 0 4Q 0 0 4 0L 226 0Q 230 0 230 4L 230 86Q 230 90 226 90L 4 90Q 0 90 0 86Z" stroke="rgba(50,50,50,1)" stroke-width="2" fill-opacity="1" fill="#ffffff"></path><path id="SvgjsPath1298" d="M 0 30L 230 30M 0 62L 230 62" stroke="rgba(50,50,50,1)" stroke-width="2" fill="none"></path><path id="SvgjsPath1299" d="M 0 0L 230 0L 230 90L 0 90Z" stroke="none" fill="none"></path><g id="SvgjsG1300"><text id="SvgjsText1301" font-family="微软雅黑" text-anchor="middle" font-size="13px" width="210px" fill="#323232" font-weight="700" align="middle" anchor="middle" family="微软雅黑" size="13px" weight="700" font-style="" opacity="1" y="5.05" transform="rotate(0)"><tspan id="SvgjsTspan1302" dy="16" x="115"><tspan id="SvgjsTspan1303" style="text-decoration:;">Computer</tspan></tspan></text></g><g id="SvgjsG1304"><text id="SvgjsText1305" font-family="微软雅黑" text-anchor="start" font-size="13px" width="210px" fill="#323232" font-weight="400" align="middle" anchor="start" family="微软雅黑" size="13px" weight="400" font-style="" opacity="1" y="35.05" transform="rotate(0)"><tspan id="SvgjsTspan1306" dy="16" x="10"><tspan id="SvgjsTspan1307" style="text-decoration:;"> </tspan></tspan></text></g><g id="SvgjsG1308"><text id="SvgjsText1309" font-family="微软雅黑" text-anchor="start" font-size="13px" width="210px" fill="#323232" font-weight="400" align="middle" anchor="start" family="微软雅黑" size="13px" weight="400" font-style="" opacity="1" y="67.05" transform="rotate(0)"></text></g></g><g id="SvgjsG1310"><path id="SvgjsPath1311" d="M1341.8399963378906 144.015625L1341.8399963378906 180.193359375L1341.2149963378906 180.193359375L1341.2149963378906 216.37109375" stroke="#323232" stroke-width="2" fill="none" marker-end="url(#SvgjsMarker1312)"></path></g><g id="SvgjsG1314" transform="translate(1249.0274963378906,182)"><path id="SvgjsPath1315" d="M 0 0L 160 0L 160 40L 0 40Z" stroke="none" fill="none"></path><g id="SvgjsG1316"><text id="SvgjsText1317" font-family="微软雅黑" text-anchor="middle" font-size="13px" width="160px" fill="#323232" font-weight="400" align="middle" anchor="middle" family="微软雅黑" size="13px" weight="400" font-style="" opacity="1" y="10.05" transform="rotate(0)"><tspan id="SvgjsTspan1318" dy="16" x="80"><tspan id="SvgjsTspan1319" style="text-decoration:;">1</tspan></tspan></text></g></g><g id="SvgjsG1320" transform="translate(1254.4181213378906,132.8125114440918)"><path id="SvgjsPath1321" d="M 0 0L 160 0L 160 40L 0 40Z" stroke="none" fill="none"></path><g id="SvgjsG1322"><text id="SvgjsText1323" font-family="微软雅黑" text-anchor="middle" font-size="13px" width="160px" fill="#323232" font-weight="400" align="middle" anchor="middle" family="微软雅黑" size="13px" weight="400" font-style="" opacity="1" y="10.05" transform="rotate(0)"><tspan id="SvgjsTspan1324" dy="16" x="80"><tspan id="SvgjsTspan1325" style="text-decoration:;">*</tspan></tspan></text></g></g><g id="SvgjsG1326"><path id="SvgjsPath1327" d="M1226.2149963378906 261.37109375L1171.5274963378906 261.37109375L1171.5274963378906 260.75L1116.8399963378906 260.75" stroke="#323232" stroke-width="2" fill="none" marker-end="url(#SvgjsMarker1328)"></path></g><g id="SvgjsG1330" transform="translate(1136.5274963378906,230.5888671875)"><path id="SvgjsPath1331" d="M 0 0L 160 0L 160 40L 0 40Z" stroke="none" fill="none"></path><g id="SvgjsG1332"><text id="SvgjsText1333" font-family="微软雅黑" text-anchor="middle" font-size="13px" width="160px" fill="#323232" font-weight="400" align="middle" anchor="middle" family="微软雅黑" size="13px" weight="400" font-style="" opacity="1" y="10.05" transform="rotate(0)"><tspan id="SvgjsTspan1334" dy="16" x="80"><tspan id="SvgjsTspan1335" style="text-decoration:;">*</tspan></tspan></text></g></g><g id="SvgjsG1336" transform="translate(433.8784228153527,1166.1625003814697)"><path id="SvgjsPath1337" d="M 0 4Q 0 0 4 0L 226 0Q 230 0 230 4L 230 120Q 230 124 226 124L 4 124Q 0 124 0 120Z" stroke="rgba(50,50,50,1)" stroke-width="2" fill-opacity="1" fill="#ffffff"></path><path id="SvgjsPath1338" d="M 0 30L 230 30M 0 96L 230 96" stroke="rgba(50,50,50,1)" stroke-width="2" fill="none"></path><path id="SvgjsPath1339" d="M 0 0L 230 0L 230 124L 0 124Z" stroke="none" fill="none"></path><g id="SvgjsG1340"><text id="SvgjsText1341" font-family="微软雅黑" text-anchor="middle" font-size="13px" width="210px" fill="#323232" font-weight="700" align="middle" anchor="middle" family="微软雅黑" size="13px" weight="700" font-style="" opacity="1" y="5.05" transform="rotate(0)"><tspan id="SvgjsTspan1342" dy="16" x="115"><tspan id="SvgjsTspan1343" style="text-decoration:;">Email</tspan></tspan></text></g><g id="SvgjsG1344"><text id="SvgjsText1345" font-family="微软雅黑" text-anchor="start" font-size="13px" width="210px" fill="#323232" font-weight="400" align="middle" anchor="start" family="微软雅黑" size="13px" weight="400" font-style="" opacity="1" y="28.05" transform="rotate(0)"><tspan id="SvgjsTspan1346" dy="16" x="10"><tspan id="SvgjsTspan1347" style="text-decoration:;">numOfSeat: int</tspan></tspan><tspan id="SvgjsTspan1348" dy="16" x="10"><tspan id="SvgjsTspan1349" style="text-decoration:;">roomNum: String</tspan></tspan><tspan id="SvgjsTspan1350" dy="16" x="10"><tspan id="SvgjsTspan1351" style="text-decoration:;">time: Datetime</tspan></tspan><tspan id="SvgjsTspan1352" dy="16" x="10"><tspan id="SvgjsTspan1353" style="text-decoration:;">date: Datetime</tspan></tspan></text></g><g id="SvgjsG1354"><text id="SvgjsText1355" font-family="微软雅黑" text-anchor="start" font-size="13px" width="210px" fill="#323232" font-weight="400" align="middle" anchor="start" family="微软雅黑" size="13px" weight="400" font-style="" opacity="1" y="101.05" transform="rotate(0)"></text></g></g><g id="SvgjsG1356"><path id="SvgjsPath1357" d="M548.8784228153527 1166.1625003814697L548.8784228153527 1132.2875003814697L547.6284228153527 1132.2875003814697L547.6284228153527 1098.4125003814697" stroke="#323232" stroke-width="2" fill="none"></path><rect id="SvgjsRect1358" width="31" height="16" x="532.7534228153527" y="1124.2875003814697" fill="#ffffff"></rect><text id="SvgjsText1359" font-family="微软雅黑" text-anchor="middle" font-size="13px" width="31px" fill="#323232" font-weight="400" align="top" anchor="middle" family="微软雅黑" size="13px" weight="400" font-style="" opacity="1" y="1122.3375003814697" transform="rotate(0)"><tspan id="SvgjsTspan1360" dy="16" x="548.2534228153527"><tspan id="SvgjsTspan1361" style="text-decoration:;">Send</tspan></tspan></text></g><g id="SvgjsG1362"><path id="SvgjsPath1363" d="M275.9900016784668 567.3499984741211L249.7400016784668 567.3499984741211L249.7400016784668 470.8171122144463L619.0682661133086 470.8171122144463L619.0682661133086 308.31711221444635" stroke="#323232" stroke-width="2" fill="none"></path></g><g id="SvgjsG1364" transform="translate(528.5953034121812,294.5)"><path id="SvgjsPath1365" d="M 0 0L 160 0L 160 40L 0 40Z" stroke="none" fill="none"></path><g id="SvgjsG1366"><text id="SvgjsText1367" font-family="微软雅黑" text-anchor="middle" font-size="13px" width="160px" fill="#323232" font-weight="400" align="middle" anchor="middle" family="微软雅黑" size="13px" weight="400" font-style="" opacity="1" y="10.05" transform="rotate(0)"><tspan id="SvgjsTspan1368" dy="16" x="80"><tspan id="SvgjsTspan1369" style="text-decoration:;">1</tspan></tspan></text></g></g><g id="SvgjsG1370" transform="translate(186.09530341218124,538.25)"><path id="SvgjsPath1371" d="M 0 0L 160 0L 160 40L 0 40Z" stroke="none" fill="none"></path><g id="SvgjsG1372"><text id="SvgjsText1373" font-family="微软雅黑" text-anchor="middle" font-size="13px" width="160px" fill="#323232" font-weight="400" align="middle" anchor="middle" family="微软雅黑" size="13px" weight="400" font-style="" opacity="1" y="10.05" transform="rotate(0)"><tspan id="SvgjsTspan1374" dy="16" x="80"><tspan id="SvgjsTspan1375" style="text-decoration:;">1</tspan></tspan></text></g></g></svg>